# xmcd CD database file
#
# Track frame offsets:
#	150
#	18166
#	32538
#	45241
#	59276
#	76097
#	91024
#	103294
#	116994
#	134883
#	151530
#	167174
#	190678
#	203698
#	217292
#	231805
#	247178
#	260299
#	271563
#	288043
#
# Disc length: 4147 seconds
#
# Revision: 0
# Processed by: cddbd v1.5.2PL0 Copyright (c) Steve Scherf et al.
# Submitted via: CDex 1.51
#
DISCID=09103114
DTITLE=Maria Cecilia e Rodolfo - Maria Cecilia e Rodolfo
DYEAR=2008
DGENRE=Country
TTITLE0=Maria Cecilia e Rodolfo - Você de Volta
TTITLE1=Maria Cecilia e Rodolfo - Vou Jogar a Chave Fora
TTITLE2=Maria Cecilia e Rodolfo - Pode Ser Pra Valer
TTITLE3=Maria Cecilia e Rodolfo - A Fila Andou
TTITLE4=Maria Cecilia e Rodolfo - Delicia
TTITLE5=Maria Cecilia e Rodolfo - Basta Você Me Olhar
TTITLE6=Maria Cecilia e Rodolfo - Mato e Morro Por Você
TTITLE7=Maria Cecilia e Rodolfo - Coisas Exotericas
TTITLE8=Maria Cecilia e Rodolfo - Primeiro Passo
TTITLE9=Maria Cecilia e Rodolfo - Você Me Pega
TTITLE10=Maria Cecilia e Rodolfo - Evidencias
TTITLE11=Maria Cecilia e Rodolfo - Aguas Passadas
TTITLE12=Maria Cecilia e Rodolfo - Ela Não Me Quer
TTITLE13=Maria Cecilia e Rodolfo - Me de Uma Chance
TTITLE14=Maria Cecilia e Rodolfo - Nos Dois
TTITLE15=Maria Cecilia e Rodolfo - Pagina de Amigos
TTITLE16=Maria Cecilia e Rodolfo - Nos Dois 2
TTITLE17=Maria Cecilia e Rodolfo - Se Ainda Existe Amor
TTITLE18=Maria Cecilia e Rodolfo - Desejo de Mulher
TTITLE19=Maria Cecilia e Rodolfo - Uma Vez Por Mês
EXTD=YEAR: 2008
EXTT0=
EXTT1=
EXTT2=
EXTT3=
EXTT4=
EXTT5=
EXTT6=
EXTT7=
EXTT8=
EXTT9=
EXTT10=
EXTT11=
EXTT12=
EXTT13=
EXTT14=
EXTT15=
EXTT16=
EXTT17=
EXTT18=
EXTT19=
PLAYORDER=
